<?xml version="1.0" standalone="no"?>
<!DOCTYPE svg PUBLIC "-//W3C//DTD SVG 20010904//EN"
 "http://www.w3.org/TR/2001/REC-SVG-20010904/DTD/svg10.dtd">
<svg version="1.0" xmlns="http://www.w3.org/2000/svg"
 width="800.000000pt" height="800.000000pt" viewBox="0 0 800.000000 800.000000"
 preserveAspectRatio="xMidYMid meet">
<metadata>
Created by potrace 1.11, written by Peter Selinger 2001-2013
</metadata>
<g transform="translate(0.000000,800.000000) scale(0.100000,-0.100000)"
fill="#000000" stroke="none">
<path d="M1800 7089 c-76 -76 -113 -206 -114 -394 0 -145 17 -240 66 -367 84
-219 264 -387 633 -587 133 -73 414 -201 439 -201 48 0 266 195 306 274 28 56
80 103 155 143 30 15 52 29 51 31 -2 1 -52 11 -112 21 -333 58 -661 154 -859
254 -111 55 -186 108 -276 194 -168 160 -231 322 -196 500 16 78 13 118 -11
146 -22 25 -46 21 -82 -14z"/>
<path d="M6274 7099 c-22 -24 -24 -74 -6 -169 34 -187 -78 -396 -303 -563
-196 -145 -544 -268 -998 -352 -76 -14 -141 -25 -145 -25 -4 0 18 -14 48 -32
88 -50 129 -87 157 -142 41 -81 256 -276 305 -276 23 0 208 81 353 155 337
171 548 330 650 490 102 159 153 383 134 597 -13 151 -53 256 -120 312 -37 31
-50 32 -75 5z"/>
<path d="M3868 6208 c-36 -4 -99 -26 -165 -57 -112 -51 -197 -71 -308 -71 -67
0 -65 -12 8 -45 l51 -22 -53 -56 c-53 -56 -136 -107 -175 -107 -17 0 -18 -2
-6 -10 27 -17 200 -11 258 9 l53 18 14 -28 c8 -15 15 -42 15 -59 0 -16 4 -30
8 -30 12 0 47 40 65 75 9 17 16 25 17 18 0 -25 -23 -119 -36 -145 -8 -16 -11
-28 -7 -28 13 0 62 35 78 56 13 18 14 16 15 -22 0 -77 49 -194 81 -194 5 0 9
17 9 37 l0 38 45 -52 c25 -28 66 -61 92 -74 27 -12 72 -38 102 -56 47 -30 55
-32 70 -20 9 8 55 36 103 62 80 42 148 101 148 126 0 6 5 7 10 4 6 -3 10 -20
10 -36 0 -26 2 -28 19 -20 33 18 63 96 65 166 1 61 2 64 16 45 17 -22 69 -60
84 -60 5 0 4 6 -2 13 -13 15 -42 121 -42 151 0 14 8 7 23 -23 27 -50 57 -73
57 -44 0 10 9 37 19 59 l19 42 53 -19 c38 -13 83 -18 149 -19 102 0 148 13 87
24 -48 9 -147 77 -180 123 l-27 38 49 21 c72 32 73 44 4 44 -107 1 -194 19
-288 61 -155 70 -152 70 -359 72 -105 1 -217 -1 -248 -5z"/>
<path d="M1735 5810 c-125 -26 -186 -46 -290 -94 -208 -97 -302 -186 -321
-304 -8 -54 8 -99 64 -174 56 -77 254 -281 299 -309 18 -11 55 -49 84 -85 135
-170 368 -278 630 -291 65 -3 203 0 309 7 105 7 193 10 196 7 3 -3 10 -38 15
-79 15 -109 50 -200 147 -391 l87 -172 -3 -370 c-4 -403 8 -631 38 -747 51
-197 61 -341 34 -468 -25 -115 -25 -431 0 -530 22 -89 32 -110 50 -110 18 0
23 22 36 160 12 132 21 170 60 260 19 45 30 90 34 147 11 145 29 164 126 133
35 -11 69 -20 76 -20 23 0 85 62 154 155 37 49 78 99 90 110 12 11 28 31 35
45 29 57 65 310 65 462 0 54 7 105 19 144 34 108 42 198 26 304 -8 52 -21 158
-30 235 -20 177 -45 279 -105 431 -120 300 -163 456 -185 664 -23 221 -41 280
-115 365 -22 26 -49 63 -59 83 -27 53 -66 185 -81 270 -7 39 -16 72 -19 72
-23 0 -183 -110 -226 -155 -62 -65 -121 -94 -187 -95 -39 0 -72 13 -195 76
-81 42 -185 98 -231 125 -263 156 -399 186 -627 139z m11 -360 c55 -23 61 -36
26 -54 -16 -8 -34 -22 -41 -30 -11 -13 -8 -16 16 -22 120 -27 189 -58 222
-100 28 -36 27 -44 -8 -44 -17 0 -33 -4 -36 -10 -3 -5 -1 -10 5 -10 7 0 82
-34 168 -75 199 -94 243 -106 415 -112 93 -4 137 -9 137 -17 0 -23 -63 -120
-104 -160 -177 -171 -541 -151 -840 48 -147 98 -294 272 -368 434 -34 75 -36
72 52 117 123 63 261 77 356 35z m1209 -1105 c0 -38 -37 -48 -55 -15 -14 27 4
52 34 48 16 -2 21 -10 21 -33z m-36 -160 c17 -8 43 -15 58 -15 22 -1 25 -3 12
-10 -40 -23 -139 35 -139 82 0 21 2 20 20 -9 10 -18 33 -39 49 -48z"/>
<path d="M6094 5810 c-77 -20 -162 -60 -319 -150 -198 -113 -340 -182 -388
-187 -72 -8 -129 18 -208 96 -38 38 -99 84 -143 109 -42 23 -78 42 -80 42 -2
0 -9 -30 -16 -67 -29 -156 -81 -286 -145 -363 -73 -87 -95 -160 -115 -379 -17
-181 -52 -309 -172 -621 -75 -192 -93 -263 -113 -437 -8 -76 -23 -186 -31
-244 -17 -117 -10 -205 26 -317 12 -40 19 -103 23 -207 6 -143 25 -289 48
-365 6 -19 28 -53 49 -75 21 -22 57 -67 81 -100 123 -169 136 -177 235 -146
61 19 70 20 90 6 25 -16 30 -35 39 -152 3 -51 15 -95 39 -150 34 -76 45 -132
61 -313 7 -74 16 -96 38 -87 20 8 55 156 63 268 7 107 -8 315 -31 412 -12 53
-13 84 -5 154 12 108 26 185 50 283 36 142 50 541 30 838 -15 214 -9 239 104
467 98 197 136 309 136 404 l0 43 138 -8 c75 -5 216 -9 312 -9 207 1 284 17
445 95 113 55 177 105 259 202 30 36 71 76 90 87 43 27 227 219 289 301 26 34
51 79 57 101 29 108 -45 222 -206 317 -246 143 -535 203 -730 152z m576 -356
c58 -17 122 -47 156 -73 l22 -17 -24 -56 c-69 -164 -217 -342 -366 -440 -309
-205 -672 -225 -850 -47 -41 41 -98 132 -98 157 0 5 62 12 138 15 171 7 216
19 413 113 86 41 161 74 168 74 7 0 9 5 6 10 -3 6 -19 10 -36 10 -37 0 -37 19
-1 51 46 42 80 59 159 80 42 10 78 21 81 23 2 3 -15 17 -37 31 -44 30 -44 38
-1 60 71 37 159 40 270 9z m-1411 -1091 c12 -23 -4 -53 -29 -53 -26 0 -45 36
-29 56 16 19 46 18 58 -3z m51 -117 c0 -49 -98 -110 -139 -86 -12 7 -9 9 14
10 41 0 95 35 108 70 14 36 17 37 17 6z"/>
<path d="M3759 2257 c-19 -12 -55 -54 -81 -92 -79 -118 -115 -135 -217 -99
-41 14 -49 14 -86 -1 -94 -35 -146 -119 -153 -242 -7 -134 12 -162 249 -374
63 -56 77 -75 92 -121 23 -75 69 -135 120 -159 53 -24 162 -25 298 -3 90 14
108 14 198 0 148 -24 248 -21 302 7 51 27 91 81 113 152 20 62 38 83 153 179
113 94 157 145 177 204 20 58 20 146 0 205 -21 62 -84 131 -137 152 -39 15
-47 15 -88 1 -61 -22 -111 -20 -142 5 -15 11 -50 54 -78 94 -64 93 -97 115
-173 115 -57 0 -161 -29 -203 -56 -21 -13 -27 -12 -65 7 -103 53 -223 64 -279
26z m-315 -366 c20 -27 50 -54 67 -61 17 -7 49 -38 71 -67 22 -30 57 -70 78
-90 76 -68 115 -189 69 -214 -60 -32 -198 23 -232 93 -15 31 -16 43 -6 82 l11
46 -45 50 c-46 51 -87 139 -87 185 0 42 34 31 74 -24z m1346 32 c0 -28 -28
-114 -46 -141 -8 -13 -32 -41 -51 -63 -34 -38 -36 -42 -26 -82 18 -80 -16
-132 -110 -172 -43 -18 -118 -20 -135 -3 -17 17 -15 68 4 114 9 20 41 65 73
98 31 34 69 78 84 99 16 20 43 45 62 55 18 9 50 38 70 65 37 48 75 63 75 30z"/>
</g>
</svg>
